:SAMPLES-PER-SECOND 30
:FULLY-SPECIFIED
:DEGREES
465
root  -68.4053 34.9099 -56.4168 -175.484 -4.92088 -179.212
RightUpLeg  -7.84549 -9.18381 2.21803
RightLeg  14.1914 -5.26474 -0.974068
RightFoot  0.0931315 0.00602634 0.162872
RightToes  -13.3054 -0.0463214 -0.12094
Spine  -1.02461 -0.00237179 1.07616
Spine1  -2.11993 0.192518 2.66103
HEad  -64.1962 -5.06479 6.1303
LeftShoulder1  -1.94126e-019 -3.10601e-018 -2.51263e-017
LeftArm  -19.6278 22.9383 -82.8811
LeftForeArm  29.5916 -19.8727 -3.2913
LeftHand  -0.499547 -1.49154 8.59383
RightShoulder  -4.96962e-017 0 -2.36833e-017
RightArm  -22.7444 -18.3907 72.527
RightForeArm  52.4321 16.9462 1.16001
RightHand  -0.377374 -1.47618 -11.0754
LeftUpLeg  -11.4903 -6.81682 3.35294
LeftLeg  19.9149 10.7247 3.09845
LeftFoot  1.023 -0.00159831 0.340599
LeftToes  -12.5009 1.31378e-006 1.14341e-007
466
root  -68.5053 35.0001 -56.7211 -175.03 -4.41234 -179.652
RightUpLeg  -6.95988 -8.48916 1.65527
RightLeg  12.5113 -5.52094 -0.854614
RightFoot  0.646521 0.0104669 0.115501
RightToes  -13.5099 -0.0477982 -0.122705
Spine  -1.23845 -0.125317 0.81695
Spine1  -2.54598 -0.0717407 2.21008
HEad  -63.4881 -4.53344 6.46667
LeftShoulder1  -1.94126e-019 -3.10601e-018 -2.51263e-017
LeftArm  -19.3311 23.639 -82.4142
LeftForeArm  29.8876 -17.2986 -2.92875
LeftHand  -0.48079 -1.39776 8.3843
RightShoulder  -4.96962e-017 0 -2.36833e-017
RightArm  -23.8132 -18.5024 73.7391
RightForeArm  50.3498 18.1206 1.437
RightHand  -0.357052 -1.63021 -10.8813
LeftUpLeg  -10.0494 -7.47677 2.72678
LeftLeg  17.4314 11.9235 2.89165
LeftFoot  1.86066 -0.00633136 0.551454
LeftToes  -12.7047 1.31378e-006 1.14341e-007
467
root  -68.5881 35.0471 -56.9809 -174.626 -3.903 -179.896
RightUpLeg  -6.16271 -8.41268 1.26945
RightLeg  10.899 -5.0577 -0.637897
RightFoot  1.08532 0.0137617 0.0837942
RightToes  -13.8403 -0.0493201 -0.12464
Spine  -1.38725 -0.200692 0.684138
Spine1  -2.83896 -0.240258 1.99901
HEad  -63.0331 -4.22828 6.5465
LeftShoulder1  -1.94126e-019 -3.10601e-018 -2.51263e-017
LeftArm  -19.2842 24.0255 -82.1528
LeftForeArm  30.8507 -14.4536 -2.47373
LeftHand  -0.475058 -1.46535 8.20977
RightShoulder  -4.96962e-017 0 -2.36833e-017
RightArm  -23.374 -18.7214 74.56
RightForeArm  48.9523 19.4062 1.72774
RightHand  -0.348782 -1.40654 -10.051
LeftUpLeg  -8.7595 -7.09292 2.33554
LeftLeg  15.0832 12.2267 2.44338
LeftFoot  2.40998 -0.0110124 0.685104
LeftToes  -12.6527 1.31378e-006 1.14341e-007
468
root  -68.6619 35.0501 -57.2034 -174.395 -3.38115 179.913
RightUpLeg  -5.59382 -8.5521 0.912286
RightLeg  9.97827 -4.42484 -0.486064
RightFoot  1.12475 0.0141372 0.0928554
RightToes  -13.9603 -0.0506966 -0.126686
Spine  -1.41802 -0.146722 0.587389
Spine1  -2.89949 -0.140527 1.82765
HEad  -63.0802 -4.2213 6.55957
LeftShoulder1  -1.94126e-019 -3.10601e-018 -2.51263e-017
LeftArm  -19.8374 23.9954 -81.9801
LeftForeArm  31.9721 -11.9115 -2.05645
LeftHand  -0.481366 -1.46744 8.31428
RightShoulder  -4.96962e-017 0 -2.36833e-017
RightArm  -21.776 -19.0081 75.0442
RightForeArm  49.2259 20.6587 1.94932
RightHand  -0.378766 -0.877553 -9.70051
LeftUpLeg  -7.86295 -7.23262 1.96385
LeftLeg  13.7958 12.9259 2.28308
LeftFoot  2.53097 -0.013734 0.745569
LeftToes  -12.4705 1.31378e-006 1.14341e-007
469
root  -68.7187 35.0301 -57.3661 -174.129 -3.06326 179.865
RightUpLeg  -5.5914 -8.75038 0.753525
RightLeg  9.91307 -3.88723 -0.422549
RightFoot  0.957735 0.0134833 0.115438
RightToes  -14.2417 -0.0517371 -0.128721
Spine  -1.3856 -0.0588035 0.539179
Spine1  -2.8372 0.0392596 1.73725
HEad  -63.5932 -4.37146 6.58747
LeftShoulder1  -1.94126e-019 -3.10601e-018 -2.51263e-017
LeftArm  -20.9211 23.7791 -81.8625
LeftForeArm  32.2944 -10.5017 -1.82597
LeftHand  -0.489869 -1.24 8.73033
RightShoulder  -4.96962e-017 0 -2.36833e-017
RightArm  -20.3717 -18.993 75.4106
RightForeArm  50.8619 20.949 1.93558
RightHand  -0.418953 -0.428163 -9.80787
LeftUpLeg  -7.57992 -8.15919 1.75062
LeftLeg  13.4234 14.1851 2.40722
LeftFoot  2.39989 -0.0153116 0.773758
LeftToes  -12.2376 1.31378e-006 1.14341e-007
470
root  -68.7672 35.0227 -57.4915 -173.855 -2.91191 179.793
RightUpLeg  -5.70468 -8.45843 0.619602
RightLeg  10.0079 -4.03831 -0.445742
RightFoot  0.796213 0.0135468 0.126337
RightToes  -14.3202 -0.0521098 -0.130622
Spine  -1.31619 0.0357583 0.483018
Spine1  -2.70152 0.235781 1.6167
HEad  -64.3765 -4.56596 6.78611
LeftShoulder1  -1.94126e-019 -3.10601e-018 -2.51263e-017
LeftArm  -21.727 23.6193 -81.6716
LeftForeArm  31.5475 -10.2755 -1.79203
LeftHand  -0.477034 -0.918142 8.91285
RightShoulder  -4.96962e-017 0 -2.36833e-017
RightArm  -19.7575 -18.6677 75.8541
RightForeArm  52.3895 19.9113 1.67909
RightHand  -0.444478 -0.322514 -10.1991
LeftUpLeg  -7.41301 -8.46367 1.5751
LeftLeg  13.0655 14.6899 2.39787
LeftFoot  2.28632 -0.0153382 0.766345
LeftToes  -11.7743 1.31378e-006 1.14341e-007
471
root  -68.821 35.0182 -57.5894 -173.655 -2.8947 179.746
RightUpLeg  -5.75678 -8.22248 0.509614
RightLeg  10.0501 -4.24926 -0.472183
RightFoot  0.725558 0.0141776 0.127458
RightToes  -14.6254 -0.0528947 -0.132267
Spine  -1.23637 0.128847 0.436012
Spine1  -2.54875 0.433737 1.4912
HEad  -64.953 -4.6804 7.0618
LeftShoulder1  -1.94126e-019 -3.10601e-018 -2.51263e-017
LeftArm  -21.8114 23.4935 -81.4177
LeftForeArm  30.8568 -10.6206 -1.8515
LeftHand  -0.468944 -0.780202 8.94824
RightShoulder  -4.96962e-017 0 -2.36833e-017
RightArm  -19.9627 -18.3903 76.2671
RightForeArm  52.944 18.6665 1.43136
RightHand  -0.440002 -0.379258 -10.2052
LeftUpLeg  -7.37963 -8.0773 1.47228
LeftLeg  12.9033 14.3578 2.30363
LeftFoot  2.15793 -0.013121 0.715561
LeftToes  -11.5426 1.31378e-006 1.14341e-007
472
root  -68.8796 35.0027 -57.6587 -173.42 -3.16626 179.673
RightUpLeg  -5.93781 -8.62337 0.367383
RightLeg  10.2506 -4.10911 -0.471189
RightFoot  0.524289 0.0138606 0.140208
RightToes  -14.7475 -0.0537861 -0.133308
Spine  -1.1729 0.16199 0.400754
Spine1  -2.4321 0.511541 1.38606
HEad  -65.1623 -4.81406 7.28177
LeftShoulder1  -1.94126e-019 -3.10601e-018 -2.51263e-017
LeftArm  -21.2472 23.4741 -81.1615
LeftForeArm  30.9216 -11.9837 -2.08525
LeftHand  -0.46747 -0.844891 8.83322
RightShoulder  -4.96962e-017 0 -2.36833e-017
RightArm  -20.9299 -18.1864 76.5666
RightForeArm  53.4579 17.2737 1.16317
RightHand  -0.422299 -0.412271 -9.85628
LeftUpLeg  -7.62226 -8.05543 1.34994
LeftLeg  13.0684 14.0907 2.30284
LeftFoot  1.97551 -0.0106078 0.65468
LeftToes  -11.3943 1.31378e-006 1.14341e-007
473
root  -68.9299 34.9776 -57.7142 -173.173 -3.61986 179.637
RightUpLeg  -6.12705 -9.23332 0.285184
RightLeg  10.4408 -3.94661 -0.465852
RightFoot  0.310577 0.0134103 0.152706
RightToes  -15.0366 -0.0547692 -0.134878
Spine  -1.11951 0.167036 0.387844
Spine1  -2.33541 0.528774 1.32999
HEad  -65.398 -5.07987 7.64421
LeftShoulder1  -1.94126e-019 -3.10601e-018 -2.51263e-017
LeftArm  -20.2528 23.3675 -80.9346
LeftForeArm  31.0392 -13.5338 -2.33898
LeftHand  -0.46902 -1.00093 8.65836
RightShoulder  -4.96962e-017 0 -2.36833e-017
RightArm  -21.9573 -18.2513 76.6116
RightForeArm  54.4173 16.0604 1.07442
RightHand  -0.406637 -0.522995 -9.69518
LeftUpLeg  -8.02238 -8.21362 1.28817
LeftLeg  13.441 13.8946 2.36326
LeftFoot  1.60248 -0.00543087 0.5499
LeftToes  -10.86 1.31378e-006 1.14341e-007
474
root  -68.9753 34.9555 -57.7649 -172.972 -4.05121 179.608
RightUpLeg  -6.29592 -9.68702 0.209806
RightLeg  10.6714 -3.89202 -0.475314
RightFoot  0.0792694 0.0127894 0.165245
RightToes  -14.9967 -0.055829 -0.136713
Spine  -1.07593 0.178875 0.369058
Spine1  -2.25556 0.549931 1.26947
HEad  -65.534 -5.45836 8.09896
LeftShoulder1  -1.94126e-019 -3.10601e-018 -2.51263e-017
LeftArm  -19.194 23.1349 -80.7143
LeftForeArm  30.9213 -15.045 -2.58013
LeftHand  -0.467736 -1.06516 8.55425
RightShoulder  -4.96962e-017 0 -2.36833e-017
RightArm  -23.2437 -18.5302 76.5444
RightForeArm  55.8305 14.974 1.13363
RightHand  -0.403815 -0.706606 -9.98644
LeftUpLeg  -8.33853 -8.72561 1.23506
LeftLeg  13.7658 13.9594 2.45463
LeftFoot  1.34802 -0.00378424 0.483246
LeftToes  -10.6795 1.31378e-006 1.14341e-007
475
root  -69.0226 34.9394 -57.8098 -172.777 -4.35602 179.587
RightUpLeg  -6.48781 -9.77093 0.152509
RightLeg  10.9026 -4.02631 -0.508218
RightFoot  -0.0344781 0.0125188 0.170137
RightToes  -15.4241 -0.056951 -0.138614
Spine  -1.05448 0.175315 0.35748
Spine1  -2.2151 0.531346 1.23358
HEad  -65.5114 -5.80218 8.5755
LeftShoulder1  -1.94126e-019 -3.10601e-018 -2.51263e-017
LeftArm  -18.4315 22.9646 -80.5523
LeftForeArm  30.6633 -16.5937 -2.81856
LeftHand  -0.459565 -1.12188 8.33843
RightShoulder  -4.96962e-017 0 -2.36833e-017
RightArm  -24.7658 -18.911 76.4095
RightForeArm  57.2929 14.0561 1.23357
RightHand  -0.40727 -0.816946 -10.3041
LeftUpLeg  -8.59654 -9.12527 1.19377
LeftLeg  13.9966 14.033 2.52493
LeftFoot  1.16288 -0.00282283 0.433598
LeftToes  -10.7266 1.31378e-006 1.14341e-007
476
root  -69.0732 34.9313 -57.8477 -172.628 -4.54013 179.574
RightUpLeg  -6.6334 -9.95406 0.0801902
RightLeg  11.0771 -4.01939 -0.519803
RightFoot  -0.119038 0.0121284 0.173861
RightToes  -15.6324 -0.0581201 -0.140385
Spine  -1.04847 0.17779 0.358243
Spine1  -2.20137 0.518265 1.23143
HEad  -65.3274 -6.25552 8.98256
LeftShoulder1  -1.94126e-019 -3.10601e-018 -2.51263e-017
LeftArm  -17.8884 22.795 -80.4976
LeftForeArm  30.5095 -17.8568 -3.00271
LeftHand  -0.458578 -1.18665 8.24406
RightShoulder  -4.96962e-017 0 -2.36833e-017
RightArm  -25.6667 -19.4642 76.1464
RightForeArm  57.8273 13.4934 1.30684
RightHand  -0.394091 -0.979258 -10.3184
LeftUpLeg  -8.74727 -9.18697 1.13262
LeftLeg  14.0933 13.9145 2.52802
LeftFoot  1.01672 -0.00207661 0.389925
LeftToes  -10.6017 1.31378e-006 1.14341e-007
477
root  -69.1253 34.9269 -57.8694 -172.503 -4.56378 179.552
RightUpLeg  -6.84891 -10.1306 -0.0176129
RightLeg  11.3447 -3.8698 -0.518878
RightFoot  -0.192559 0.0115863 0.176628
RightToes  -15.7527 -0.0593216 -0.141826
Spine  -1.05029 0.14836 0.356749
Spine1  -2.20323 0.443515 1.22566
HEad  -65.0889 -6.61821 9.2822
LeftShoulder1  -1.94126e-019 -3.10601e-018 -2.51263e-017
LeftArm  -17.3651 22.7078 -80.4683
LeftForeArm  30.3295 -18.971 -3.15628
LeftHand  -0.46157 -1.1821 8.28492
RightShoulder  -4.96962e-017 0 -2.36833e-017
RightArm  -26.3541 -19.9812 75.8835
RightForeArm  58.1907 13.1692 1.3472
RightHand  -0.394684 -0.960233 -10.2917
LeftUpLeg  -8.84372 -8.9876 1.03675
LeftLeg  14.1067 13.7364 2.49957
LeftFoot  0.872827 -0.00141135 0.34687
LeftToes  -10.2644 1.31378e-006 1.14341e-007
